<mxfile host="Electron" agent="Mozilla/5.0 (Windows NT 10.0; Win64; x64) AppleWebKit/537.36 (KHTML, like Gecko) draw.io/26.0.4 Chrome/128.0.6613.186 Electron/32.2.5 Safari/537.36" version="26.0.4">
  <diagram id="Ht1M8jgEwFfnCIfOTk4-" name="Page-1">
    <mxGraphModel dx="1098" dy="868" grid="1" gridSize="10" guides="1" tooltips="1" connect="1" arrows="1" fold="1" page="1" pageScale="1" pageWidth="1169" pageHeight="827" math="0" shadow="0">
      <root>
        <mxCell id="0" />
        <mxCell id="1" parent="0" />
        <mxCell id="UEzPUAAOIrF-is8g5C7q-74" value="AWS Cloud" style="points=[[0,0],[0.25,0],[0.5,0],[0.75,0],[1,0],[1,0.25],[1,0.5],[1,0.75],[1,1],[0.75,1],[0.5,1],[0.25,1],[0,1],[0,0.75],[0,0.5],[0,0.25]];outlineConnect=0;gradientColor=none;html=1;whiteSpace=wrap;fontSize=12;fontStyle=0;shape=mxgraph.aws4.group;grIcon=mxgraph.aws4.group_aws_cloud_alt;strokeColor=#232F3E;fillColor=none;verticalAlign=top;align=left;spacingLeft=30;fontColor=#232F3E;dashed=0;labelBackgroundColor=#ffffff;container=1;pointerEvents=0;collapsible=0;recursiveResize=0;" parent="1" vertex="1">
          <mxGeometry x="40" y="40" width="680" height="400" as="geometry" />
        </mxCell>
        <mxCell id="9UTULf64D1P_8PDWrGwd-11" value="Region&amp;nbsp;us-east-1" style="points=[[0,0],[0.25,0],[0.5,0],[0.75,0],[1,0],[1,0.25],[1,0.5],[1,0.75],[1,1],[0.75,1],[0.5,1],[0.25,1],[0,1],[0,0.75],[0,0.5],[0,0.25]];outlineConnect=0;gradientColor=none;html=1;whiteSpace=wrap;fontSize=12;fontStyle=0;container=1;pointerEvents=0;collapsible=0;recursiveResize=0;shape=mxgraph.aws4.group;grIcon=mxgraph.aws4.group_region;strokeColor=#00A4A6;fillColor=none;verticalAlign=top;align=left;spacingLeft=30;fontColor=#147EBA;dashed=1;" parent="UEzPUAAOIrF-is8g5C7q-74" vertex="1">
          <mxGeometry x="39" y="40" width="601" height="320" as="geometry" />
        </mxCell>
        <mxCell id="g8h-cfseLE8ZBg4q3OUL-2" value="" style="fillColor=none;strokeColor=#5A6C86;dashed=1;verticalAlign=top;fontStyle=0;fontColor=#5A6C86;whiteSpace=wrap;html=1;" vertex="1" parent="9UTULf64D1P_8PDWrGwd-11">
          <mxGeometry x="41" y="82" width="199" height="118" as="geometry" />
        </mxCell>
        <mxCell id="LxNSlQS486C29II8cPUR-2" value="" style="sketch=0;points=[[0,0,0],[0.25,0,0],[0.5,0,0],[0.75,0,0],[1,0,0],[0,1,0],[0.25,1,0],[0.5,1,0],[0.75,1,0],[1,1,0],[0,0.25,0],[0,0.5,0],[0,0.75,0],[1,0.25,0],[1,0.5,0],[1,0.75,0]];outlineConnect=0;fontColor=#232F3E;fillColor=#C925D1;strokeColor=#ffffff;dashed=0;verticalLabelPosition=bottom;verticalAlign=top;align=center;html=1;fontSize=12;fontStyle=0;aspect=fixed;shape=mxgraph.aws4.resourceIcon;resIcon=mxgraph.aws4.codebuild;" parent="9UTULf64D1P_8PDWrGwd-11" vertex="1">
          <mxGeometry x="162" y="119.5" width="43" height="43" as="geometry" />
        </mxCell>
        <mxCell id="LxNSlQS486C29II8cPUR-3" value="" style="sketch=0;points=[[0,0,0],[0.25,0,0],[0.5,0,0],[0.75,0,0],[1,0,0],[0,1,0],[0.25,1,0],[0.5,1,0],[0.75,1,0],[1,1,0],[0,0.25,0],[0,0.5,0],[0,0.75,0],[1,0.25,0],[1,0.5,0],[1,0.75,0]];outlineConnect=0;fontColor=#232F3E;fillColor=#C925D1;strokeColor=#ffffff;dashed=0;verticalLabelPosition=bottom;verticalAlign=top;align=center;html=1;fontSize=12;fontStyle=0;aspect=fixed;shape=mxgraph.aws4.resourceIcon;resIcon=mxgraph.aws4.codestar;" parent="9UTULf64D1P_8PDWrGwd-11" vertex="1">
          <mxGeometry x="82" y="122" width="39" height="39" as="geometry" />
        </mxCell>
        <mxCell id="LxNSlQS486C29II8cPUR-1" value="" style="sketch=0;points=[[0,0,0],[0.25,0,0],[0.5,0,0],[0.75,0,0],[1,0,0],[0,1,0],[0.25,1,0],[0.5,1,0],[0.75,1,0],[1,1,0],[0,0.25,0],[0,0.5,0],[0,0.75,0],[1,0.25,0],[1,0.5,0],[1,0.75,0]];outlineConnect=0;fontColor=#232F3E;fillColor=#C925D1;strokeColor=#ffffff;dashed=0;verticalLabelPosition=bottom;verticalAlign=top;align=center;html=1;fontSize=12;fontStyle=0;aspect=fixed;shape=mxgraph.aws4.resourceIcon;resIcon=mxgraph.aws4.codepipeline;" parent="9UTULf64D1P_8PDWrGwd-11" vertex="1">
          <mxGeometry x="41" y="82" width="40" height="40" as="geometry" />
        </mxCell>
        <mxCell id="r94AK6IX4XdTHrppU9AJ-12" value="HmsCluster" style="fillColor=#EFF0F3;strokeColor=none;dashed=0;verticalAlign=top;fontStyle=0;fontColor=#232F3D;whiteSpace=wrap;html=1;" parent="9UTULf64D1P_8PDWrGwd-11" vertex="1">
          <mxGeometry x="282" y="42" width="278" height="197" as="geometry" />
        </mxCell>
        <mxCell id="r94AK6IX4XdTHrppU9AJ-14" value="HmsWebApService" style="fillColor=none;strokeColor=#5A6C86;dashed=1;verticalAlign=top;fontStyle=0;fontColor=#5A6C86;whiteSpace=wrap;html=1;" parent="9UTULf64D1P_8PDWrGwd-11" vertex="1">
          <mxGeometry x="321" y="83" width="201" height="116" as="geometry" />
        </mxCell>
        <mxCell id="r94AK6IX4XdTHrppU9AJ-3" value="" style="sketch=0;outlineConnect=0;fontColor=#232F3E;gradientColor=none;fillColor=#ED7100;strokeColor=none;dashed=0;verticalLabelPosition=bottom;verticalAlign=top;align=center;html=1;fontSize=12;fontStyle=0;aspect=fixed;pointerEvents=1;shape=mxgraph.aws4.ecs_service;" parent="9UTULf64D1P_8PDWrGwd-11" vertex="1">
          <mxGeometry x="322" y="83" width="39" height="48" as="geometry" />
        </mxCell>
        <mxCell id="r94AK6IX4XdTHrppU9AJ-4" value="" style="sketch=0;outlineConnect=0;fontColor=#232F3E;gradientColor=none;fillColor=#ED7100;strokeColor=none;dashed=0;verticalLabelPosition=bottom;verticalAlign=top;align=center;html=1;fontSize=12;fontStyle=0;aspect=fixed;pointerEvents=1;shape=mxgraph.aws4.ecs_task;" parent="9UTULf64D1P_8PDWrGwd-11" vertex="1">
          <mxGeometry x="400" y="128" width="37" height="48" as="geometry" />
        </mxCell>
        <mxCell id="r94AK6IX4XdTHrppU9AJ-7" value="" style="sketch=0;points=[[0,0,0],[0.25,0,0],[0.5,0,0],[0.75,0,0],[1,0,0],[0,1,0],[0.25,1,0],[0.5,1,0],[0.75,1,0],[1,1,0],[0,0.25,0],[0,0.5,0],[0,0.75,0],[1,0.25,0],[1,0.5,0],[1,0.75,0]];outlineConnect=0;fontColor=#232F3E;fillColor=#ED7100;strokeColor=#ffffff;dashed=0;verticalLabelPosition=bottom;verticalAlign=top;align=center;html=1;fontSize=12;fontStyle=0;aspect=fixed;shape=mxgraph.aws4.resourceIcon;resIcon=mxgraph.aws4.ecs;" parent="9UTULf64D1P_8PDWrGwd-11" vertex="1">
          <mxGeometry x="282" y="41" width="37" height="37" as="geometry" />
        </mxCell>
        <mxCell id="g8h-cfseLE8ZBg4q3OUL-6" value="" style="edgeStyle=orthogonalEdgeStyle;html=1;endArrow=block;elbow=vertical;startArrow=none;endFill=1;strokeColor=#545B64;rounded=0;exitX=1;exitY=0.5;exitDx=0;exitDy=0;entryX=0;entryY=0.5;entryDx=0;entryDy=0;" edge="1" parent="9UTULf64D1P_8PDWrGwd-11" source="g8h-cfseLE8ZBg4q3OUL-2" target="r94AK6IX4XdTHrppU9AJ-12">
          <mxGeometry width="100" relative="1" as="geometry">
            <mxPoint x="431" y="370" as="sourcePoint" />
            <mxPoint x="531" y="370" as="targetPoint" />
          </mxGeometry>
        </mxCell>
        <mxCell id="g8h-cfseLE8ZBg4q3OUL-7" value="" style="sketch=0;points=[[0,0,0],[0.25,0,0],[0.5,0,0],[0.75,0,0],[1,0,0],[0,1,0],[0.25,1,0],[0.5,1,0],[0.75,1,0],[1,1,0],[0,0.25,0],[0,0.5,0],[0,0.75,0],[1,0.25,0],[1,0.5,0],[1,0.75,0]];outlineConnect=0;fontColor=#232F3E;fillColor=#ED7100;strokeColor=#ffffff;dashed=0;verticalLabelPosition=bottom;verticalAlign=top;align=center;html=1;fontSize=12;fontStyle=0;aspect=fixed;shape=mxgraph.aws4.resourceIcon;resIcon=mxgraph.aws4.ecr;" vertex="1" parent="9UTULf64D1P_8PDWrGwd-11">
          <mxGeometry x="163" y="240" width="40" height="40" as="geometry" />
        </mxCell>
        <mxCell id="g8h-cfseLE8ZBg4q3OUL-8" value="" style="edgeStyle=orthogonalEdgeStyle;html=1;endArrow=block;elbow=vertical;startArrow=none;endFill=1;strokeColor=#545B64;rounded=0;exitX=0.5;exitY=1;exitDx=0;exitDy=0;exitPerimeter=0;entryX=0.5;entryY=0;entryDx=0;entryDy=0;entryPerimeter=0;" edge="1" parent="9UTULf64D1P_8PDWrGwd-11" source="LxNSlQS486C29II8cPUR-2" target="g8h-cfseLE8ZBg4q3OUL-7">
          <mxGeometry width="100" relative="1" as="geometry">
            <mxPoint x="371" y="480" as="sourcePoint" />
            <mxPoint x="531" y="370" as="targetPoint" />
          </mxGeometry>
        </mxCell>
        <mxCell id="g8h-cfseLE8ZBg4q3OUL-9" value="" style="edgeStyle=orthogonalEdgeStyle;html=1;endArrow=none;elbow=vertical;startArrow=block;startFill=1;strokeColor=#545B64;rounded=0;entryX=1;entryY=0.5;entryDx=0;entryDy=0;entryPerimeter=0;" edge="1" parent="9UTULf64D1P_8PDWrGwd-11" source="r94AK6IX4XdTHrppU9AJ-4">
          <mxGeometry width="100" relative="1" as="geometry">
            <mxPoint x="420.985090909091" y="179.98399999999992" as="sourcePoint" />
            <mxPoint x="203" y="260" as="targetPoint" />
            <Array as="points">
              <mxPoint x="411" y="260" />
            </Array>
          </mxGeometry>
        </mxCell>
        <mxCell id="g8h-cfseLE8ZBg4q3OUL-3" value="" style="dashed=0;outlineConnect=0;html=1;align=center;labelPosition=center;verticalLabelPosition=bottom;verticalAlign=top;shape=mxgraph.weblogos.github" vertex="1" parent="1">
          <mxGeometry x="160" y="480" width="40" height="40" as="geometry" />
        </mxCell>
        <mxCell id="g8h-cfseLE8ZBg4q3OUL-5" value="" style="edgeStyle=orthogonalEdgeStyle;htmDepartman barl=1;endArrow=open;elbow=vertical;startArrow=open;startFill=0;endFill=0;strokeColor=#545B64;rounded=0;exitX=0.5;exitY=1;exitDx=0;exitDy=0;exitPerimeter=0;" edge="1" parent="1" source="LxNSlQS486C29II8cPUR-3" target="g8h-cfseLE8ZBg4q3OUL-3">
          <mxGeometry width="100" relative="1" as="geometry">
            <mxPoint x="510" y="450" as="sourcePoint" />
            <mxPoint x="610" y="450" as="targetPoint" />
          </mxGeometry>
        </mxCell>
        <mxCell id="9UTULf64D1P_8PDWrGwd-44" value="ルートテーブル" parent="0" />
      </root>
    </mxGraphModel>
  </diagram>
</mxfile>
